<?xml version="1.0" encoding="UTF-8"?>
<svg id="Components" xmlns="http://www.w3.org/2000/svg" viewBox="0 0 6.85 6.85">
  <defs>
    <style>
      .cls-1 {
        fill: #fff;
      }

      .cls-2 {
        fill: #7ecbba;
      }
    </style>
  </defs>
  <rect class="cls-2" width="6.85" height="6.85" rx="1.2" ry="1.2"/>
  <g id="_9d90a3e0-e57b-4134-b91d-121d395fdbd1_5" data-name="9d90a3e0-e57b-4134-b91d-121d395fdbd1@5">
    <path class="cls-1" d="M2.37,3.93c.26-.05.51-.13.75-.23.24-.1.47-.22.69-.37.44-.29.81-.67,1.14-1.08.17-.21.32-.42.47-.64.13-.2.26-.4.38-.61-.15.18-.3.37-.46.54-.18.2-.36.39-.55.57-.38.37-.8.7-1.28.94-.48.25-1.01.38-1.53.44-.33.03-.66.04-.98.04v.53c.46,0,.93-.04,1.38-.13Z"/>
    <path class="cls-1" d="M1.88,2.45c.36-.07.71-.17,1.04-.31.33-.14.65-.33.93-.56.21-.17.4-.37.56-.59H1.69c-.39,0-.7.31-.7.7v.85c.3,0,.6-.03.89-.08Z"/>
    <path class="cls-1" d="M5.3,3.53c-.32.5-.72.94-1.19,1.3-.47.36-1.01.63-1.57.81-.29.09-.59.17-.89.22h3.51c.39,0,.7-.31.7-.7v-2.76c-.14.4-.33.78-.55,1.13Z"/>
  </g>
</svg>