<?xml version="1.0" encoding="UTF-8"?>
<svg id="Components" xmlns="http://www.w3.org/2000/svg" viewBox="0 0 30.0647 6.8464">
  <defs>
    <style>
      .cls-1 {
        fill: #fff;
      }
    </style>
  </defs>
  <g id="b50893a1-d73e-44af-a225-084bdea6ccc2_5" data-name="b50893a1-d73e-44af-a225-084bdea6ccc2@5">
    <g>
      <path class="cls-1" d="M1.9381,4.133c.3613-.0759.7159-.1806,1.057-.3195.3407-.1396.6661-.3153.9724-.5206.6138-.4108,1.1435-.9424,1.6079-1.5234.2327-.2907.4504-.5941.6577-.9048.1853-.2815.3616-.5692.5324-.8603-.2107.2585-.4251.5143-.647.764-.2477.2764-.5037.5462-.7727.8039-.5367.5147-1.1321.9829-1.8054,1.3229-.6706.346-1.4154.5339-2.1588.6139C.9208,3.5579.4597,3.5713,0,3.567v.7509c.6527-.0064,1.3042-.0516,1.9381-.185Z"/>
      <path class="cls-1" d="M1.252,2.0606c.5024-.093.9955-.2394,1.464-.4423.4681-.203.9119-.4634,1.3054-.786C4.318.5894,4.5849.3102,4.809,0H.9872C.442,0,0,.442,0,.9872v1.1895c.419-.0004.8389-.0401,1.252-.1162Z"/>
      <path class="cls-1" d="M6.0693,3.5711c-.4442.7019-1.0136,1.3279-1.6792,1.8299-.6646.5036-1.4201.8824-2.2118,1.1388-.4096.133-.8285.2339-1.2522.3068h4.933c.5452,0,.9872-.442.9872-.9872V1.9761c-.2029.5559-.4584,1.0935-.7771,1.595Z"/>
    </g>
    <g>
      <path class="cls-1" d="M14.8473.0002v2.7967h-4.3597V.0002h-1.2411v6.8457h1.2411v-2.7967h4.3597v2.7967h1.2411V.0002h-1.2411Z"/>
      <path class="cls-1" d="M22.8029.9198c.1536-.2982.3515-.5466.5881-.7378.0842-.068.1725-.1271.2627-.1819h-6.9614v1.2413h2.5691v5.6052h1.2412V1.2413h2.1742c.0348-.1131.0747-.222.126-.3215Z"/>
      <path class="cls-1" d="M29.974,4.1731c-.061-.1942-.1424-.3662-.246-.516-.1036-.1498-.222-.2775-.3552-.3847-.135-.1054-.2756-.1942-.4236-.2645-.1479-.0703-.2959-.1221-.4458-.1554-.1498-.0333-.2922-.0518-.4254-.0555h-2.8652c-.2349,0-.418-.0684-.5512-.2072-.1313-.1387-.1979-.3274-.1979-.566,0-.2349.0666-.4236.1979-.5679.1332-.1424.3163-.2145.5512-.2145h3.7012L29.4191.0002h-4.2062c-.1997,0-.4162.0352-.6492.1073-.2312.0722-.4476.1887-.6455.3478-.1997.1609-.3644.3699-.4976.6252-.1313.2571-.1979.5716-.1979.9434,0,.3736.0666.6881.1979.9452.1332.259.2978.4661.4976.6252.1979.1609.4143.2756.6455.3477.2331.0703.4495.1073.6492.1073h2.8559c.1147,0,.2183.0185.3126.0574.0943.037.1739.0925.2386.1609.0647.0703.1165.1535.1498.2497.0351.0943.0536.1998.0536.3144,0,.2349-.0666.4236-.1979.5642-.1331.1387-.3181.209-.5567.209h-4.7889l.4956,1.2411h4.2932c.1332,0,.2756-.0148.4272-.0481.1517-.0315.2997-.0795.4458-.148.1461-.0666.2885-.1517.4254-.2571.1368-.1054.2571-.233.3588-.381.1017-.1498.1831-.3237.246-.5179.061-.1961.0925-.4162.0925-.6622,0-.2441-.0315-.4643-.0907-.6585Z"/>
    </g>
  </g>
</svg>